<?xml version="1.0" standalone="no"?><!DOCTYPE svg PUBLIC "-//W3C//DTD SVG 1.1//EN" "http://www.w3.org/Graphics/SVG/1.1/DTD/svg11.dtd"><svg t="1602999626750" class="icon" viewBox="0 0 1024 1024" version="1.1" xmlns="http://www.w3.org/2000/svg" p-id="1697" xmlns:xlink="http://www.w3.org/1999/xlink" width="32" height="32"><defs><style type="text/css"></style></defs><path d="M768 160a117.333333 117.333333 0 0 1 117.333333 117.333333v362.666667a117.333333 117.333333 0 0 1-117.333333 117.333333H539.946667l-157.76 121.365334c-21.056 16.192-51.52 1.194667-51.52-25.365334v-96H256A117.333333 117.333333 0 0 1 138.666667 640V277.333333A117.333333 117.333333 0 0 1 256 160h512z m0 64H256A53.333333 53.333333 0 0 0 202.666667 277.333333v362.666667a53.333333 53.333333 0 0 0 53.333333 53.333333h106.666667a32 32 0 0 1 32 32v63.018667l114.88-88.384a32 32 0 0 1 19.52-6.634667H768a53.333333 53.333333 0 0 0 53.333333-53.333333V277.333333a53.333333 53.333333 0 0 0-53.333333-53.333333zM341.333333 426.666667a42.666667 42.666667 0 1 1 0 85.333333 42.666667 42.666667 0 0 1 0-85.333333z m170.666667 0a42.666667 42.666667 0 1 1 0 85.333333 42.666667 42.666667 0 0 1 0-85.333333z m170.666667 0a42.666667 42.666667 0 1 1 0 85.333333 42.666667 42.666667 0 0 1 0-85.333333z" fill="#8a8a8a" p-id="1698"></path></svg>