<?xml version="1.0" standalone="no"?><!DOCTYPE svg PUBLIC "-//W3C//DTD SVG 1.1//EN" "http://www.w3.org/Graphics/SVG/1.1/DTD/svg11.dtd"><svg t="1602930638055" class="icon" viewBox="0 0 1024 1024" version="1.1" xmlns="http://www.w3.org/2000/svg" p-id="2188" xmlns:xlink="http://www.w3.org/1999/xlink" width="32" height="32"><defs><style type="text/css"></style></defs><path d="M909.312 304.768a448 448 0 0 1-604.544 604.544l67.264-67.264a358.4 358.4 0 0 0 470.016-470.016l67.2-67.264zM512 64c107.584 0 206.336 37.952 283.52 101.12l87.808-87.808 63.36 63.36-805.76 805.76-63.36-63.36L165.12 795.52A448 448 0 0 1 512 64z m0 89.6a358.4 358.4 0 0 0-283.136 578.176l502.912-502.912A356.864 356.864 0 0 0 512 153.6z" fill="#333333" p-id="2189"></path></svg>