<?xml version="1.0" standalone="no"?><!DOCTYPE svg PUBLIC "-//W3C//DTD SVG 1.1//EN" "http://www.w3.org/Graphics/SVG/1.1/DTD/svg11.dtd"><svg t="1603105215817" class="icon" viewBox="0 0 1024 1024" version="1.1" xmlns="http://www.w3.org/2000/svg" p-id="10573" xmlns:xlink="http://www.w3.org/1999/xlink" width="32" height="32"><defs><style type="text/css"></style></defs><path d="M861.090909 74.472727H162.909091c-58.181818 0-104.727273 46.545455-104.727273 104.727273v558.545455c0 58.181818 46.545455 104.727273 104.727273 104.727272h230.4l95.418182 95.418182c6.981818 6.981818 16.290909 9.309091 25.6 9.309091 9.309091 0 18.618182-2.327273 25.6-9.309091l95.418182-95.418182H861.090909c58.181818 0 104.727273-46.545455 104.727273-104.727272v-558.545455c0-55.854545-46.545455-104.727273-104.727273-104.727273z m-539.927273 418.909091c-27.927273 0-51.2-23.272727-51.2-51.2s23.272727-51.2 51.2-51.2 51.2 23.272727 51.2 51.2-23.272727 51.2-51.2 51.2z m209.454546 0c-27.927273 0-51.2-23.272727-51.2-51.2s23.272727-51.2 51.2-51.2 51.2 23.272727 51.2 51.2-23.272727 51.2-51.2 51.2z m209.454545 0c-27.927273 0-51.2-23.272727-51.2-51.2s23.272727-51.2 51.2-51.2c27.927273 0 51.2 23.272727 51.2 51.2s-23.272727 51.2-51.2 51.2z" fill="#ed0e7d" p-id="10574"></path><path d="M0 0h1024v1024H0V0z" fill="#ed0e7d" fill-opacity="0" p-id="10575"></path></svg>