<?xml version="1.0" standalone="no"?><!DOCTYPE svg PUBLIC "-//W3C//DTD SVG 1.1//EN" "http://www.w3.org/Graphics/SVG/1.1/DTD/svg11.dtd"><svg t="1603104670183" class="icon" viewBox="0 0 1024 1024" version="1.1" xmlns="http://www.w3.org/2000/svg" p-id="6391" xmlns:xlink="http://www.w3.org/1999/xlink" width="32" height="32"><defs><style type="text/css"></style></defs><path d="M68.266667 1024h887.466666a34.133333 34.133333 0 1 0 0-68.266667H68.266667a34.133333 34.133333 0 1 0 0 68.266667zM352.119467 687.240533l-204.8 79.872 77.824-204.8 126.976 124.928z m255.1808-508.654933l128.546133 129.2288-349.320533 348.637867-128.546134-129.297067 349.320534-348.5696z m226.304-47.445333a53.521067 53.521067 0 0 1 0 75.776l-63.010134 63.010133L644.437333 143.837867l63.010134-63.0784a53.521067 53.521067 0 0 1 75.776 0l50.312533 50.3808z" fill="#8a8a8a" p-id="6392"></path></svg>