<?xml version="1.0" standalone="no"?><!DOCTYPE svg PUBLIC "-//W3C//DTD SVG 1.1//EN" "http://www.w3.org/Graphics/SVG/1.1/DTD/svg11.dtd"><svg t="1603105172323" class="icon" viewBox="0 0 1024 1024" version="1.1" xmlns="http://www.w3.org/2000/svg" p-id="9174" xmlns:xlink="http://www.w3.org/1999/xlink" width="32" height="32"><defs><style type="text/css"></style></defs><path d="M788.394667 682.666667c24.746667 0 44.288 18.944 44.288 43.52a43.178667 43.178667 0 0 1-43.178667 43.52H236.629333a43.861333 43.861333 0 0 1-43.093333-43.52c0-24.405333 19.285333-43.52 43.093333-43.52h551.765334z m0-256c24.746667 0 44.288 18.944 44.288 43.52a43.093333 43.093333 0 0 1-43.178667 43.52H236.629333a43.690667 43.690667 0 0 1-43.093333-43.52c0-24.405333 19.285333-43.52 43.093333-43.52h551.765334zM236.629333 257.706667a41.728 41.728 0 0 1-43.093333-43.52c0-24.32 19.285333-43.52 43.093333-43.52h292.608c23.381333 0 43.178667 19.882667 43.178667 43.52 0 24.490667-19.370667 43.52-43.178667 43.52H236.629333zM851.712 0c96 0 173.312 76.629333 172.373333 171.093333v681.813334c0 94.634667-77.568 171.008-173.482666 171.008H173.312C77.482667 1023.914667 0 947.541333 0 852.906667v-681.813334C0 76.458667 77.482667 0 173.312 0h678.4z m87.04 169.984c0-47.530667-38.997333-85.845333-87.04-85.845333H174.421333c-47.616 0-87.04 39.082667-87.04 85.845333v681.813333c0 47.530667 39.082667 85.845333 87.04 85.845334h677.290667c47.616 0 87.04-39.082667 87.04-85.845334v-681.813333z" p-id="9175" fill="#9e17ea"></path></svg>