<?xml version="1.0" standalone="no"?><!DOCTYPE svg PUBLIC "-//W3C//DTD SVG 1.1//EN" "http://www.w3.org/Graphics/SVG/1.1/DTD/svg11.dtd"><svg t="1603097135649" class="icon" viewBox="0 0 1024 1024" version="1.1" xmlns="http://www.w3.org/2000/svg" p-id="4963" xmlns:xlink="http://www.w3.org/1999/xlink" width="32" height="32"><defs><style type="text/css"></style></defs><path d="M512.259072 704c-108.8 0-192-83.2-192-192s83.2-192 192-192 192 83.2 192 192-83.2 192-192 192z m0-320a128.3584 128.3584 0 0 0-128 128c0 70.4 57.6 128 128 128s128-57.6 128-128-57.6-128-128-128z" fill="#8a8a8a" p-id="4964"></path><path d="M640.259072 1024h-256c-19.2 0-32-12.8-32-32V870.4c-25.6-12.8-51.2-25.6-70.4-38.4l-102.4 64a33.7408 33.7408 0 0 1-44.8-12.8l-128-224c-12.8-19.2-6.4-38.4 12.8-44.8l102.4-64v-76.8L19.459072 409.6c-19.2-6.4-25.6-25.6-12.8-44.8l128-224c6.4-12.8 25.6-19.2 44.8-6.4l102.4 64c19.2-12.8 44.8-32 70.4-38.4v-128C352.259072 12.8 365.059072 0 384.259072 0h256c19.2 0 32 12.8 32 32V153.6c25.6 12.8 51.2 25.6 70.4 38.4l102.4-64a33.7408 33.7408 0 0 1 44.8 12.8l128 224c12.8 19.2 6.4 38.4-12.8 44.8l-102.4 64v76.8l102.4 64c12.8 6.4 19.2 25.6 12.8 44.8l-128 224c-6.4 12.8-25.6 19.2-44.8 12.8l-102.4-64c-19.2 12.8-44.8 32-70.4 38.4v121.6c0 19.2-12.8 32-32 32zM416.259072 960h192v-108.8c0-12.8 6.4-25.6 19.2-32a408.064 408.064 0 0 0 89.6-51.2c12.8-6.4 25.6-6.4 38.4 0l96 57.6 96-166.4-96-57.6c-12.8-12.8-19.2-25.6-12.8-38.4 0-19.2 6.4-32 6.4-51.2s0-32-6.4-51.2c0-12.8 6.4-25.6 12.8-32l96-57.6L851.459072 204.8l-96 57.6a40.8064 40.8064 0 0 1-38.4 0 408.064 408.064 0 0 0-89.6-51.2c-12.8-12.8-19.2-25.6-19.2-38.4V64H416.259072v108.8c0 12.8-6.4 25.6-19.2 32a408.064 408.064 0 0 0-89.6 51.2 40.8064 40.8064 0 0 1-38.4 0L173.059072 204.8 77.059072 371.2 173.059072 428.8c12.8 6.4 19.2 19.2 12.8 32 0 19.2-6.4 32-6.4 51.2s0 32 6.4 51.2c6.4 12.8 0 25.6-12.8 32L77.059072 652.8 173.059072 819.2l96-57.6c12.8-6.4 25.6-6.4 38.4 0 25.6 19.2 57.6 38.4 89.6 51.2 12.8 6.4 19.2 19.2 19.2 32v115.2z" fill="#8a8a8a" p-id="4965"></path></svg>