<?xml version="1.0" standalone="no"?><!DOCTYPE svg PUBLIC "-//W3C//DTD SVG 1.1//EN" "http://www.w3.org/Graphics/SVG/1.1/DTD/svg11.dtd"><svg t="1603105303529" class="icon" viewBox="0 0 1024 1024" version="1.1" xmlns="http://www.w3.org/2000/svg" p-id="13171" xmlns:xlink="http://www.w3.org/1999/xlink" width="32" height="32"><defs><style type="text/css"></style></defs><path d="M548.623 115.675c36.578 6.423 61.78 26.213 78.538 57.068 16.758 30.856 22.115 70.118 22.115 116.591 0 43.28-21.35 87.081-40.577 119.643l-0.608 1.022 243.95 0.001c33.138 0 60 26.863 60 60a60 60 0 0 1-1.811 14.634l-95.82 381C807.701 892.304 783.721 911 756.22 911H326V410l11.16-0.001c51.015-24.188 60.039-36.517 74.365-55.937 15.17-20.562 35.764-42.766 29.577-115.488-2.78-32.66-6.477-66.947 16.112-90.88 25.78-27.312 53.32-38.708 91.409-32.02zM198 410c33.137 0 60 26.863 60 60v381c0 33.137-26.863 60-60 60h-25c-33.137 0-60-26.863-60-60V470c0-33.137 26.863-60 60-60h25z" p-id="13172" fill="#0eb5f3"></path></svg>